<?xml version="1.0" standalone="no"?>
<!DOCTYPE svg PUBLIC "-//W3C//DTD SVG 20010904//EN"
 "http://www.w3.org/TR/2001/REC-SVG-20010904/DTD/svg10.dtd">
<svg version="1.0" xmlns="http://www.w3.org/2000/svg"
 width="4000.000000pt" height="2792.000000pt" viewBox="0 0 4000.000000 2792.000000"
 preserveAspectRatio="xMidYMid meet">

<g transform="translate(0.000000,2792.000000) scale(0.100000,-0.100000)"
fill="#000000" stroke="none">
<path d="M17755 23290 l-2240 -4620 -3969 -2 -3970 -3 -1166 -2405 c-1027
-2118 -4177 -8614 -5828 -12020 l-579 -1195 8636 -5 8637 -5 1358 -1510 c747
-831 1362 -1510 1366 -1510 5 0 561 614 1236 1365 675 751 1287 1431 1361
1512 l134 148 8633 2 8633 3 -889 1835 c-489 1009 -1852 3820 -3028 6245
-1176 2426 -2480 5114 -2897 5975 l-758 1565 -3970 3 -3970 2 -2239 4620
c-1232 2541 -2242 4620 -2246 4620 -3 0 -1014 -2079 -2245 -4620z m5770 -7265
c376 -775 1391 -2868 2255 -4650 864 -1782 1574 -3246 1577 -3252 4 -10 -420
-13 -2100 -13 l-2104 0 -1575 3247 -1575 3248 -3970 3 -3970 2 -1528 -3152
c-841 -1734 -1660 -3423 -1820 -3753 l-291 -600 3964 -3 c3807 -2 3963 -3
3958 -20 -3 -10 -224 -468 -491 -1017 l-485 -1000 -6070 -3 c-3338 -1 -6070 1
-6070 5 0 6 1517 3138 4528 9345 l1085 2238 3969 2 3969 3 1593 3285 c876
1807 1600 3300 1610 3319 l18 33 1420 -2928 c781 -1611 1727 -3563 2103 -4339z
m8293 -737 c363 -750 1624 -3350 2801 -5778 1178 -2428 2144 -4423 2147 -4432
5 -17 -279 -18 -6066 -16 l-6071 3 -489 1010 c-270 555 -490 1013 -490 1017 0
4 1783 9 3963 10 l3963 3 -1820 3753 -1819 3752 -811 0 -812 0 -488 1008
c-269 554 -491 1013 -493 1020 -4 9 582 12 2910 12 l2914 0 661 -1362z
m-12321 -1710 c-2 -7 -600 -1240 -1327 -2740 l-1323 -2728 -2104 0 c-1158 0
-2103 4 -2101 8 2 5 599 1238 1328 2740 l1324 2732 2104 0 c1679 0 2103 -3
2099 -12z m500 -7504 c-4 -5 -2272 -511 -2276 -508 -1 2 244 513 547 1136 302
623 814 1679 1138 2347 l589 1215 3 -2094 c1 -1151 1 -2095 -1 -2096z"/>
</g>
</svg>
